<svg width="16" height="16" viewBox="0 0 16 16" fill="none" xmlns="http://www.w3.org/2000/svg">
<g clip-path="url(#clip0_6_117)">
<path fill-rule="evenodd" clip-rule="evenodd" d="M15.871 8.492C15.744 8.716 12.707 14 8.00001 14C3.26901 14 0.254005 8.713 0.128005 8.489C-0.0419946 8.186 -0.0429946 7.817 0.126005 7.514C0.251005 7.289 3.24501 2 8.00001 2C12.731 2 15.746 7.287 15.872 7.512C16.043 7.816 16.042 8.188 15.871 8.492ZM13.818 8C13.036 6.835 10.839 4 8.00001 4C5.14601 4 2.95801 6.835 2.18101 7.999C2.96201 9.162 5.15901 12 8.00001 12C10.837 12 13.034 9.166 13.818 8ZM10 8C10 9.10457 9.10457 10 8 10C6.89543 10 6 9.10457 6 8C6 6.89543 6.89543 6 8 6C9.10457 6 10 6.89543 10 8Z" fill="#242424"/>
</g>
<defs>
<clipPath id="clip0_6_117">
<rect width="16" height="16" fill="white"/>
</clipPath>
</defs>
</svg>
