<svg width="16" height="16" viewBox="0 0 16 16" fill="none" xmlns="http://www.w3.org/2000/svg">
<g clip-path="url(#clip0_6_118)">
<path fill-rule="evenodd" clip-rule="evenodd" d="M0.999994 16C0.743994 16 0.487994 15.902 0.292994 15.707C-0.0980063 15.316 -0.0980063 14.684 0.291994 14.294L2.82099 11.765C1.17199 10.291 0.197994 8.61401 0.127994 8.48901C-0.0420064 8.18601 -0.0430064 7.81701 0.125994 7.51401C0.250994 7.28901 3.24499 2.00001 7.99999 2.00001C9.33099 2.00001 10.515 2.43101 11.548 3.03801L14.293 0.293006C14.684 -0.0979941 15.316 -0.0979941 15.707 0.293006C16.098 0.684006 16.098 1.31601 15.707 1.70701L1.70699 15.707C1.51199 15.902 1.25599 16 0.999994 16ZM7.99999 4.00001C5.14599 4.00001 2.95799 6.83501 2.18099 7.99901C2.55899 8.56201 3.28499 9.51 4.23999 10.346L6.07399 8.51201C6.02899 8.34801 5.99999 8.17801 5.99999 8.00001C5.99999 6.89501 6.89499 6.00001 7.99999 6.00001C8.17799 6.00001 8.34799 6.02901 8.51199 6.07401L10.078 4.50801C9.43699 4.20101 8.74199 4.00001 7.99999 4.00001ZM13.15 7.09301L14.574 5.66901C15.372 6.63101 15.825 7.42701 15.872 7.51201C16.043 7.81601 16.042 8.18801 15.871 8.49201C15.744 8.71601 12.707 14 7.99999 14C7.45699 14 6.93899 13.924 6.44299 13.8L8.25799 11.985C10.969 11.82 13.059 9.13001 13.819 8.00001C13.656 7.75701 13.428 7.44001 13.15 7.09301Z" fill="#242424"/>
</g>
<defs>
<clipPath id="clip0_6_118">
<rect width="16" height="16" fill="white"/>
</clipPath>
</defs>
</svg>
