<svg width="24" height="24" viewBox="0 0 24 24" fill="none" xmlns="http://www.w3.org/2000/svg">
<path fill-rule="evenodd" clip-rule="evenodd" d="M15.2431 8.75688C15.6336 9.14741 15.6336 9.78057 15.2431 10.1711L13.7071 11.7071C13.707 11.7072 13.7072 11.707 13.7071 11.7071L2.70711 22.7071C2.31658 23.0976 1.68342 23.0976 1.29289 22.7071C0.902369 22.3166 0.902369 21.6834 1.29289 21.2929L13.8289 8.75688C14.2194 8.36636 14.8526 8.36636 15.2431 8.75688Z" fill="#06259F"/>
<path fill-rule="evenodd" clip-rule="evenodd" d="M13.546 1.18397C13.8794 1.01409 14.2797 1.04453 14.5835 1.26286L17.3231 3.23138L20.538 2.2053C20.8944 2.09153 21.2845 2.18627 21.5491 2.45085C21.8137 2.71542 21.9084 3.10556 21.7947 3.46201L20.7686 6.67687L22.7371 9.41643C22.9554 9.72028 22.9859 10.1206 22.816 10.454C22.6461 10.7874 22.3043 10.998 21.9302 10.9999L18.5562 11.0173L16.559 13.7369C16.3375 14.0385 15.9662 14.1912 15.5966 14.1326C15.227 14.0741 14.921 13.8141 14.8036 13.4589L13.7445 10.2555L10.5411 9.19641C10.1858 9.07895 9.92585 8.77296 9.86732 8.40338C9.80878 8.03379 9.96149 7.66245 10.2631 7.44096L12.9826 5.44374L13 2.0698C13.002 1.69563 13.2126 1.35385 13.546 1.18397ZM14.99 4.0177L14.98 5.95711C14.9784 6.27359 14.827 6.57062 14.5719 6.75795L13.0089 7.90583L14.8499 8.5145C15.1504 8.61385 15.3861 8.84957 15.4855 9.15005L16.0941 10.9911L17.242 9.42803C17.4293 9.17295 17.7264 9.0216 18.0428 9.01997L19.9823 9.00996L18.8509 7.43548C18.6663 7.17852 18.6141 6.84934 18.7104 6.5479L19.3002 4.69974L17.4521 5.28961C17.1506 5.38582 16.8214 5.33369 16.5645 5.14905L14.99 4.0177Z" fill="#06259F"/>
<path d="M7 3.5C6.173 3.5 5.5 2.827 5.5 2C5.5 1.448 5.052 1 4.5 1C3.948 1 3.5 1.448 3.5 2C3.5 2.827 2.827 3.5 2 3.5C1.448 3.5 1 3.948 1 4.5C1 5.052 1.448 5.5 2 5.5C2.827 5.5 3.5 6.173 3.5 7C3.5 7.552 3.948 8 4.5 8C5.052 8 5.5 7.552 5.5 7C5.5 6.173 6.173 5.5 7 5.5C7.552 5.5 8 5.052 8 4.5C8 3.948 7.552 3.5 7 3.5Z" fill="#06259F"/>
<path d="M22 18.5C21.173 18.5 20.5 17.827 20.5 17C20.5 16.448 20.052 16 19.5 16C18.948 16 18.5 16.448 18.5 17C18.5 17.827 17.827 18.5 17 18.5C16.448 18.5 16 18.948 16 19.5C16 20.052 16.448 20.5 17 20.5C17.827 20.5 18.5 21.173 18.5 22C18.5 22.552 18.948 23 19.5 23C20.052 23 20.5 22.552 20.5 22C20.5 21.173 21.173 20.5 22 20.5C22.552 20.5 23 20.052 23 19.5C23 18.948 22.552 18.5 22 18.5Z" fill="#06259F"/>
</svg>
