<svg width="16" height="16" viewBox="0 0 16 16" fill="none" xmlns="http://www.w3.org/2000/svg">
<g clip-path="url(#clip0_5_103)">
<path fill-rule="evenodd" clip-rule="evenodd" d="M2 6C2 3.79086 3.79086 2 6 2C8.20914 2 10 3.79086 10 6C10 8.20914 8.20914 10 6 10C3.79086 10 2 8.20914 2 6ZM6 0C2.68629 0 0 2.68629 0 6C0 9.31371 2.68629 12 6 12C9.31371 12 12 9.31371 12 6C12 2.68629 9.31371 0 6 0ZM12.2071 10.7929C11.8166 10.4024 11.1834 10.4024 10.7929 10.7929C10.4024 11.1834 10.4024 11.8166 10.7929 12.2071L13.7929 15.2071C14.1834 15.5976 14.8166 15.5976 15.2071 15.2071C15.5976 14.8166 15.5976 14.1834 15.2071 13.7929L12.2071 10.7929Z" fill="#242424"/>
</g>
<defs>
<clipPath id="clip0_5_103">
<rect width="16" height="16" fill="white"/>
</clipPath>
</defs>
</svg>
