<svg width="16" height="16" viewBox="0 0 16 16" fill="none" xmlns="http://www.w3.org/2000/svg">
<path d="M6.5246 5.06792C6.47463 5.02852 6.41601 5.0053 6.35512 5.00081C6.29423 4.99631 6.23342 5.0107 6.1793 5.04242C6.12518 5.07414 6.07985 5.12196 6.04823 5.18068C6.01661 5.2394 5.99993 5.30675 6 5.3754V10.625C6.00012 10.6936 6.01696 10.7609 6.04869 10.8195C6.08043 10.878 6.12583 10.9257 6.17998 10.9573C6.22722 10.9853 6.27985 11 6.33329 11C6.4017 11.0001 6.4685 10.9766 6.5246 10.9325L9.85747 8.30769C9.90148 8.27314 9.93741 8.22714 9.96223 8.1736C9.98704 8.12007 10 8.06059 10 8.00021C10 7.93984 9.98704 7.88036 9.96223 7.82683C9.93741 7.77329 9.90148 7.72729 9.85747 7.69274L6.5246 5.06792Z" fill="#242424"/>
</svg>
