<svg width="16" height="16" viewBox="0 0 16 16" fill="none" xmlns="http://www.w3.org/2000/svg">
<path d="M9.82002 5.04252C9.76605 5.01084 9.7054 4.9964 9.64464 5.00076C9.58389 5.00513 9.52536 5.02813 9.47541 5.06727L6.14253 7.69237C6.09852 7.72693 6.06259 7.77294 6.03777 7.82648C6.01296 7.88001 6 7.9395 6 7.99989C6 8.06027 6.01296 8.11976 6.03777 8.17329C6.06259 8.22683 6.09852 8.27284 6.14253 8.3074L9.47541 10.9325C9.53151 10.9766 9.5983 11.0001 9.66671 11C9.72015 11 9.77278 10.9853 9.82002 10.9572C9.87417 10.9257 9.91957 10.878 9.95131 10.8194C9.98304 10.7609 9.99988 10.6936 10 10.625V5.37479C9.99988 5.30618 9.98304 5.23892 9.95131 5.18033C9.91957 5.12175 9.87417 5.07408 9.82002 5.04252Z" fill="#242424"/>
</svg>
