<svg width="16" height="16" viewBox="0 0 16 16" fill="none" xmlns="http://www.w3.org/2000/svg">
<path d="M10.9576 6.17935C10.9259 6.12532 10.8782 6.08004 10.8196 6.04842C10.761 6.0168 10.6938 6.00005 10.6253 6H5.37472C5.30612 6.00005 5.23885 6.01683 5.18023 6.0485C5.12161 6.08017 5.07389 6.12553 5.04226 6.17964C5.01062 6.23374 4.99629 6.29453 5.00082 6.35537C5.00535 6.41621 5.02856 6.47479 5.06794 6.52472L7.69322 9.85839C7.72783 9.90214 7.77377 9.93784 7.82716 9.96249C7.88056 9.98713 7.93984 10 8 10C8.06017 10 8.11945 9.98713 8.17284 9.96249C8.22624 9.93784 8.27218 9.90214 8.30679 9.85839L10.9321 6.52472C10.9715 6.47474 10.9947 6.41611 10.9992 6.35521C11.0037 6.29431 10.9893 6.23348 10.9576 6.17935Z" fill="#242424"/>
</svg>
