<svg width="16" height="16" viewBox="0 0 16 16" fill="none" xmlns="http://www.w3.org/2000/svg">
<path d="M10.9321 9.47421L8.30746 6.13372C8.27099 6.09208 8.22435 6.05839 8.17107 6.03522C8.11779 6.01204 8.05929 6 8 6C7.94071 6 7.88221 6.01204 7.82893 6.03522C7.77566 6.05839 7.72901 6.09208 7.69254 6.13372L5.06792 9.47421C5.02852 9.52429 5.0053 9.58304 5.00081 9.64407C4.99631 9.7051 5.0107 9.76605 5.04242 9.82029C5.07414 9.87453 5.12196 9.91997 5.18067 9.95166C5.23938 9.98335 5.30673 10.0001 5.37538 10H10.6246C10.6933 10.0001 10.7606 9.98335 10.8193 9.95166C10.878 9.91997 10.9259 9.87453 10.9576 9.82029C10.9893 9.76605 11.0037 9.7051 10.9992 9.64407C10.9947 9.58304 10.9715 9.52429 10.9321 9.47421Z" fill="#242424"/>
</svg>
