<svg width="16" height="16" viewBox="0 0 16 16" fill="none" xmlns="http://www.w3.org/2000/svg">
<g clip-path="url(#clip0_18_65)">
<path fill-rule="evenodd" clip-rule="evenodd" d="M11 3H15C15.2652 3 15.5196 3.10536 15.7071 3.29289C15.8946 3.48043 16 3.73478 16 4C16 4.26522 15.8946 4.51957 15.7071 4.70711C15.5196 4.89464 15.2652 5 15 5H1C0.734784 5 0.48043 4.89464 0.292893 4.70711C0.105357 4.51957 0 4.26522 0 4C0 3.73478 0.105357 3.48043 0.292893 3.29289C0.48043 3.10536 0.734784 3 1 3H5V1C5 0.734784 5.10536 0.48043 5.29289 0.292893C5.48043 0.105357 5.73478 0 6 0H10C10.2652 0 10.5196 0.105357 10.7071 0.292893C10.8946 0.48043 11 0.734784 11 1V3ZM9 2H7V3H9V2ZM3 7C3 6.44772 2.55228 6 2 6C1.44772 6 1 6.44772 1 7V13C1 14.6569 2.34315 16 4 16H12C13.6569 16 15 14.6569 15 13V7C15 6.44772 14.5523 6 14 6C13.4477 6 13 6.44772 13 7V13C13 13.5523 12.5523 14 12 14H4C3.44772 14 3 13.5523 3 13V7ZM6 7C6.55228 7 7 7.44772 7 8V12C7 12.5523 6.55228 13 6 13C5.44772 13 5 12.5523 5 12V8C5 7.44772 5.44772 7 6 7ZM10 7C9.44771 7 9 7.44772 9 8V12C9 12.5523 9.44771 13 10 13C10.5523 13 11 12.5523 11 12V8C11 7.44772 10.5523 7 10 7Z" fill="#242424"/>
</g>
<defs>
<clipPath id="clip0_18_65">
<rect width="16" height="16" fill="white"/>
</clipPath>
</defs>
</svg>
